<?xml version="1.0" encoding="utf-8"?>

<svg version="1.1" id="Layer_1" xmlns="http://www.w3.org/2000/svg" xmlns:xlink="http://www.w3.org/1999/xlink" x="0px" y="0px"
	 viewBox="0 0 567.9 220.9" style="enable-background:new 0 0 567.9 220.9;" xml:space="preserve">
<style type="text/css">
	.st0{fill:#19AAF8;}
	.st1{fill:#0C1026;}
</style>
<path class="st0" d="M121.3,67.6c3.4,0.5,4.1-0.2,4.6-3.4c0.7-5,2.5-13.3,6.7-21.9c4.5-9.2,11.7-19.4,21.7-26.2
	c8.4-5.7,22.3-11.9,33-14.2c8.8-1.9,17-2.2,24-1.6c14.5,1.3,22.5,5.4,26.5,10.8c1.5,2,2.3,4.5,2.3,6c0.1,2.7-1,6.1-4.9,9.5
	c-3.7,3.3-11.6,7.4-22.4,11c-11.2,3.7-26.5,7.7-41.8,11.2c-12.8,2.9-20,5.4-26.1,7.5c-10.1,3.4-13.1,13.5-6.8,16.5
	c9.1,4.4,14.8,9.1,19.6,13c7.3,6,15.7,13,26.2,25.6c9.5,11.6,25,33.7,30.6,55.2c6.2,23.6,2.3,46-11,52.2
	c-13.1,6.1-30.5-2.7-42.8-15.4c-11.6-12-19.8-26.2-27.4-48.1c-6.6-18.8-9.3-46.1-9.3-60.4c0-4.8-0.1-5.8,0.1-10.1
	c0.4-3.7-9.6-6.8-20.5,0.1c-12.3,7.9-24.4,22.3-31.6,30.7c-3.1,3.6-7.3,9-11.8,14.6c-5.9,7.4-12.4,15.1-18.3,19.3
	c-8.9,6.5-23.2,9.2-33.2,2c-5.6-4-8.5-11.5-8.6-19.1c-0.1-5.4,1.3-10.2,3.9-15c3.4-5.9,8.9-12.2,17.6-19.5
	c9.1-7.4,23.5-15.9,38-21.7C81.7,67.5,105.5,64.7,121.3,67.6L121.3,67.6z"/>
<g>
	<path class="st1" d="M299,95c-7.5,0-10.3-4.4-10.3-10.3V46.8h-7.6c-0.7,0-0.7-1.2-0.7-2.2s0-2.3,0.7-2.3h7.6V29.2
		c0-0.6,1.7-0.6,2.7-0.6s2.7,0,2.7,0.6v13.1h11.8c0.6,0,0.6,1.1,0.6,2.3s0,2.2-0.6,2.2h-11.8v37.7c0,4.2,1.8,5.8,6.2,5.8h5.5
		c0.7,0,0.9,0.2,0.9,2.2c0,2.2-0.2,2.5-0.9,2.5H299z"/>
	<path class="st1" d="M319.5,70.6v5.2c0,9.6,5.1,15.5,15.4,15.5c7.8,0,12.5-2.1,16.4-4.2c0.8-0.4,3.3,3.9,2.3,4.5
		c-5.1,2.9-11.4,4.6-18.5,4.6c-13.2,0-21-7.4-21-20V59.7c0-12.2,8.6-20,19.9-20c12.2,0,20.5,7.8,20.5,21.1v9.8H319.5z M349.1,60.3
		c0-10.7-6.9-15.9-15.1-15.9c-7.9,0-14.5,5.2-14.5,15.6v6.2h29.6V60.3z"/>
	<path class="st1" d="M376.9,95c-7.4,0-10.3-4.4-10.3-10.3v-64c0-0.6,1.7-0.6,2.7-0.6s2.7,0,2.7,0.6v63.8c0,4.2,1.9,5.9,6.3,5.9h2.7
		c0.7,0,0.9,0.2,0.9,2.2c0,2.2-0.2,2.4-0.9,2.4H376.9z"/>
	<path class="st1" d="M393.7,70.6v5.2c0,9.6,5.1,15.5,15.4,15.5c7.8,0,12.5-2.1,16.4-4.2c0.8-0.4,3.3,3.9,2.3,4.5
		c-5.1,2.9-11.4,4.6-18.5,4.6c-13.2,0-21-7.4-21-20V59.7c0-12.2,8.6-20,19.9-20c12.2,0,20.5,7.8,20.5,21.1v9.8H393.7z M423.3,60.3
		c0-10.7-6.9-15.9-15.1-15.9c-7.9,0-14.5,5.2-14.5,15.6v6.2h29.6V60.3z"/>
	<path class="st1" d="M476.7,95.4c-1,0-2.7,0-2.7-0.6V58.1c0-8.9-3.9-13-10.4-13c-6.9,0-13.3,5.9-17.2,11.6v38.1
		c0,0.6-1.7,0.6-2.7,0.6s-2.7,0-2.7-0.6V41c0-0.6,1.7-0.6,2.7-0.6s2.6,0,2.6,0.6v9.7c4.3-6.1,10.9-11,18.9-11
		c8.7,0,14.2,6.5,14.2,16v39.1C479.4,95.4,477.7,95.4,476.7,95.4z"/>
	<path class="st1" d="M490.9,76.7V59.2c0-12.6,7.6-19.5,20.8-19.5c13.3,0,21,6.9,21,19.5v17.5c0,12.5-7.7,19.5-21,19.5
		C498.5,96.2,490.9,89.2,490.9,76.7z M511.7,44.6c-9.6,0-15.4,4.1-15.4,15.5v15.7c0,11.3,5.8,15.6,15.4,15.6
		c9.7,0,15.6-4.1,15.6-15.6V60.1C527.3,48.8,521.4,44.6,511.7,44.6z"/>
	<path class="st1" d="M563.9,46.2c-4.4,0-8.1,4-13.6,12.4v36.2c0,0.6-1.7,0.6-2.7,0.6s-2.6,0-2.6-0.6V41c0-0.6,1.6-0.6,2.6-0.6
		s2.5,0,2.5,0.6v12.1c6-9.1,9.2-12.5,15.2-12.5h2c0.6,0,0.6,1.9,0.6,2.9c0,1-0.2,2.7-0.8,2.7H563.9z"/>
	<path class="st1" d="M319.7,173c-2.4,4.2-7.9,8.2-16.4,8.2c-11.1,0-18.8-6.6-18.8-19.5v-17.5c0-12.9,7.7-19.5,19.1-19.5
		c8.3,0,13.8,4,16.2,8.1V126c0-0.6,1.6-0.6,2.6-0.6s2.7,0,2.7,0.6v52.1c0,15.1-7.3,22.7-20.4,22.7c-6.4,0-13-2.6-16.3-4.4
		c-1-0.6,1.4-5.4,2.4-4.8c2.1,1.2,7.6,4.3,14.4,4.3c8.9,0,14.5-4.6,14.5-15.7V173z M289.9,145.1v15.7c0,11.5,6.2,15.6,14.3,15.6
		c8.8,0,15.5-5.5,15.5-14.5v-18.7c0-7.2-6.5-13.5-15.3-13.5C296.2,129.7,289.9,133.8,289.9,145.1z"/>
	<path class="st1" d="M358.3,131.2c-4.4,0-8.1,4-13.6,12.4v36.2c0,0.6-1.7,0.6-2.7,0.6s-2.6,0-2.6-0.6V126c0-0.6,1.6-0.6,2.6-0.6
		s2.5,0,2.5,0.6v12.1c6-9.1,9.2-12.5,15.2-12.5h2c0.6,0,0.6,1.9,0.6,2.9c0,1-0.2,2.7-0.8,2.7H358.3z"/>
	<path class="st1" d="M365.8,161.7v-17.5c0-12.6,7.6-19.5,20.8-19.5c13.3,0,21,6.9,21,19.5v17.5c0,12.5-7.7,19.5-21,19.5
		C373.4,181.2,365.8,174.2,365.8,161.7z M386.6,129.6c-9.6,0-15.4,4.1-15.4,15.5v15.7c0,11.3,5.8,15.6,15.4,15.6
		c9.7,0,15.6-4.1,15.6-15.6v-15.7C402.2,133.8,396.3,129.6,386.6,129.6z"/>
	<path class="st1" d="M421.8,125.4c1,0,2.7,0,2.7,0.6v37.8c0,7.9,4.7,12,10.4,12c9.9,0,17.2-11.9,17.2-11.8v-38
		c0-0.6,1.7-0.6,2.7-0.6c1,0,2.7,0,2.7,0.6v53.8c0,0.6-1.7,0.6-2.7,0.6c-1,0-2.6,0-2.6-0.6v-9.7c-4.3,6.1-10.9,11.1-18.9,11.1
		c-8.7,0-14.2-6.5-14.2-16V126C419.1,125.4,420.8,125.4,421.8,125.4z"/>
	<path class="st1" d="M477.5,173v26.8c0,0.6-1.7,0.6-2.7,0.6s-2.7,0-2.7-0.6V126c0-0.6,1.7-0.6,2.7-0.6s2.6,0,2.6,0.6v7.6
		c2.4-4.2,7.8-8.9,16.2-8.9c11.4,0,19.1,6.6,19.1,19.5v17.5c0,12.9-7.7,19.5-18.8,19.5C485.4,181.2,479.9,177.2,477.5,173z
		 M477.5,143.3v18.6c0,9,6.7,14.5,15.5,14.5c8.4,0,14.3-4.1,14.3-15.6v-15.7c0-11.3-6.3-15.4-15.3-15.4
		C483.8,129.7,477.5,136.1,477.5,143.3z"/>
</g>
</svg>
